<?xml version="1.0" standalone="no"?>
<!DOCTYPE svg PUBLIC "-//W3C//DTD SVG 20010904//EN"
 "http://www.w3.org/TR/2001/REC-SVG-20010904/DTD/svg10.dtd">
<svg version="1.0" xmlns="http://www.w3.org/2000/svg"
 width="820.000000pt" height="564.000000pt" viewBox="0 0 820.000000 564.000000"
 preserveAspectRatio="xMidYMid meet">

<g transform="translate(0.000000,564.000000) scale(0.100000,-0.100000)"
fill="#ffffff" stroke="none">
<path d="M3710 4232 c-43 -76 -242 -423 -260 -452 -5 -8 -50 -87 -101 -175
-50 -88 -131 -227 -179 -310 -143 -245 -305 -526 -336 -585 -16 -30 -32 -57
-35 -60 -4 -3 -20 -28 -35 -57 -16 -28 -76 -133 -134 -233 -58 -99 -116 -200
-129 -223 -13 -23 -47 -82 -76 -132 -29 -49 -62 -108 -74 -130 -12 -22 -91
-159 -176 -305 l-154 -265 482 -3 c552 -3 484 -16 547 105 19 38 37 70 41 73
3 3 76 129 164 280 87 151 196 340 243 419 46 80 88 154 93 165 22 49 215 370
224 373 6 2 29 -32 53 -75 23 -42 60 -106 82 -142 22 -36 43 -72 46 -80 24
-51 88 -150 94 -143 4 4 43 71 87 148 44 77 124 217 178 310 54 94 111 193
126 220 l27 50 -74 125 c-41 69 -78 132 -81 140 -4 8 -52 92 -106 185 -55 94
-113 195 -130 225 -16 30 -36 62 -43 71 -8 8 -14 18 -14 21 0 2 -32 61 -71
129 -40 68 -108 187 -152 264 -43 77 -80 141 -81 142 -1 2 -22 -32 -46 -75z"/>
<path d="M4702 3280 l-162 -280 40 -66 c22 -36 40 -68 40 -70 0 -3 11 -23 26
-45 14 -22 34 -57 46 -77 53 -95 544 -945 566 -982 9 -14 29 -50 45 -80 17
-30 49 -86 72 -125 23 -38 66 -112 94 -162 l52 -93 325 0 c178 0 324 2 324 5
0 6 -87 158 -148 259 -23 37 -42 69 -42 71 0 1 -57 101 -126 221 -158 273
-284 492 -432 749 -63 110 -123 212 -133 227 -11 14 -19 28 -19 31 0 3 -23 45
-51 94 -29 48 -115 198 -192 333 -77 135 -145 251 -152 258 -9 10 -45 -45
-173 -268z m883 -1831 c11 -17 -1 -21 -15 -4 -8 9 -8 15 -2 15 6 0 14 -5 17
-11z"/>
<path d="M4074 2192 c-6 -9 -22 -37 -36 -62 -14 -25 -51 -89 -82 -142 -31 -53
-56 -100 -56 -104 0 -4 -6 -15 -14 -23 -17 -19 -246 -417 -246 -427 0 -4 -6
-15 -14 -23 -7 -9 -26 -37 -41 -63 l-27 -48 526 0 525 0 -71 123 c-39 67 -82
142 -96 167 -14 25 -62 108 -107 185 -45 77 -98 169 -119 205 -20 36 -41 72
-46 80 -5 8 -26 45 -47 82 -33 56 -41 64 -49 50z"/>
</g>
</svg>
