<?xml version="1.0" standalone="no"?>
<!DOCTYPE svg PUBLIC "-//W3C//DTD SVG 20010904//EN"
 "http://www.w3.org/TR/2001/REC-SVG-20010904/DTD/svg10.dtd">
<svg version="1.0" xmlns="http://www.w3.org/2000/svg"
 width="840.000000pt" height="880.000000pt" viewBox="0 0 840.000000 880.000000"
 preserveAspectRatio="xMidYMid meet">
<metadata>
Created by potrace 1.16, written by Peter Selinger 2001-2019
</metadata>
<g transform="translate(0.000000,880.000000) scale(0.100000,-0.100000)"
fill="#ffffff" stroke="none">
<path d="M3895 8389 c-823 -69 -1562 -362 -2207 -877 -172 -137 -465 -430
-602 -602 -460 -577 -743 -1230 -845 -1945 -203 -1426 369 -2838 1509 -3726
1253 -976 2999 -1112 4385 -340 326 182 618 403 891 675 398 399 685 834 892
1351 532 1336 303 2849 -604 3985 -140 174 -432 467 -604 604 -611 487 -1301
774 -2070 862 -155 18 -598 26 -745 13z m722 -513 c563 -74 1040 -248 1503
-551 568 -371 1032 -925 1298 -1550 291 -683 357 -1432 191 -2163 -58 -259
-190 -616 -306 -832 -188 -350 -386 -614 -664 -885 -350 -342 -721 -581 -1180
-760 -550 -216 -1188 -286 -1784 -195 -978 149 -1845 703 -2389 1525 -318 481
-495 969 -568 1565 -17 139 -17 603 0 740 56 450 159 803 348 1185 332 672
883 1229 1552 1567 407 205 833 326 1297 368 137 12 566 3 702 -14z"/>
<path d="M2988 6371 l-33 -29 0 -2002 0 -2002 33 -29 c61 -55 65 -53 497 194
475 272 1371 786 1590 912 88 51 378 217 645 370 267 153 555 318 640 367 174
100 210 131 210 183 0 57 -20 84 -89 124 -117 68 -2086 1197 -3265 1873 -141
80 -176 86 -228 39z m755 -999 c155 -82 659 -346 1120 -587 460 -241 837 -441
837 -445 0 -3 -476 -256 -1057 -563 -582 -306 -1088 -573 -1125 -592 l-68 -36
0 1185 c0 652 2 1186 5 1186 3 0 132 -67 288 -148z"/>
</g>
</svg>
